<svg width="8" height="6" viewBox="0 0 8 6" fill="none" xmlns="http://www.w3.org/2000/svg">
<path d="M7.72011 2.54725L6.0587 0.899519C5.81725 0.660025 5.42576 0.660055 5.18428 0.899519C4.9428 1.13898 4.9428 1.52728 5.18428 1.76677L5.79017 2.36764L0.668118 2.36761C0.326654 2.36761 0.0498047 2.64215 0.0498047 2.98083C0.0498047 3.31951 0.326623 3.59405 0.668118 3.59405L5.79023 3.59408L5.18431 4.19501C4.94283 4.43444 4.94283 4.82274 5.18431 5.06223C5.42576 5.30173 5.81728 5.30166 6.05873 5.0622L7.72014 3.41447C7.72017 3.41441 7.72023 3.41435 7.72026 3.41432C7.84467 3.29084 7.89676 3.14812 7.90125 2.98086C7.90125 2.81553 7.83042 2.65659 7.72011 2.54725Z" fill="white"/>
</svg>
