<svg width="12" height="12" viewBox="0 0 12 12" fill="none" xmlns="http://www.w3.org/2000/svg">
<path d="M4.96925 7.03137C3.82387 5.88599 3.56525 4.74061 3.5069 4.28172C3.4906 4.15483 3.53427 4.02758 3.62504 3.93744L4.55194 3.01096C4.68829 2.87469 4.71248 2.66233 4.61028 2.49889L3.13449 0.207302C3.02142 0.0263187 2.78927 -0.0389999 2.59842 0.0564741L0.229249 1.17227C0.074916 1.24826 -0.0158604 1.41224 0.00166241 1.58337C0.1258 2.76268 0.639938 5.66171 3.4889 8.51089C6.33787 11.3601 9.23649 11.874 10.4164 11.9981C10.5876 12.0157 10.7515 11.9249 10.8275 11.7705L11.9433 9.40137C12.0384 9.21093 11.9735 8.9794 11.7933 8.86613L9.50173 7.39075C9.33838 7.28844 9.12603 7.31247 8.98966 7.44868L8.06318 8.37558C7.97304 8.46635 7.84579 8.51002 7.7189 8.49371C7.26001 8.43537 6.11463 8.17675 4.96925 7.03137Z" fill="white"/>
<path d="M9.51746 6.41416C9.28893 6.41416 9.10367 6.2289 9.10367 6.00037C9.10173 4.28719 7.7134 2.89886 6.00022 2.89692C5.77169 2.89692 5.58643 2.71166 5.58643 2.48313C5.58643 2.2546 5.77169 2.06934 6.00022 2.06934C8.17028 2.07173 9.92886 3.83031 9.93125 6.00037C9.93125 6.2289 9.74599 6.41416 9.51746 6.41416Z" fill="white"/>
<path d="M11.5864 6.41379C11.3579 6.41379 11.1726 6.22853 11.1726 6C11.1694 3.14468 8.85554 0.830779 6.00022 0.827586C5.77169 0.827586 5.58643 0.642325 5.58643 0.413793C5.58643 0.185261 5.77169 0 6.00022 0C9.31242 0.0036488 11.9966 2.6878 12.0002 6C12.0002 6.10975 11.9566 6.215 11.879 6.2926C11.8014 6.3702 11.6962 6.41379 11.5864 6.41379Z" fill="white"/>
</svg>
