<svg width="15" height="16" viewBox="0 0 15 16" fill="none" xmlns="http://www.w3.org/2000/svg">
<path d="M10.6968 12.2737C10.3553 12.2737 10.0784 12.5482 10.0784 12.8869V14.6039H1.23662V1.35828H10.0784V3.07531C10.0784 3.41399 10.3553 3.68853 10.6968 3.68853C11.0382 3.68853 11.3151 3.41399 11.3151 3.07531V0.745059C11.3151 0.406376 11.0382 0.131836 10.6968 0.131836H0.618309C0.276817 0.131836 0 0.406376 0 0.745059V15.2171C0 15.5558 0.276817 15.8303 0.618309 15.8303H10.6968C11.0382 15.8303 11.3151 15.5558 11.3151 15.2171V12.8869C11.3151 12.5482 11.0382 12.2737 10.6968 12.2737Z" fill="white"/>
<path d="M14.7201 7.54707L13.0587 5.89934C12.8172 5.65984 12.4258 5.65987 12.1843 5.89934C11.9428 6.1388 11.9428 6.52709 12.1843 6.76659L12.7902 7.36745L7.66812 7.36742C7.32665 7.36742 7.0498 7.64196 7.0498 7.98065C7.0498 8.31933 7.32662 8.59387 7.66812 8.59387L12.7902 8.5939L12.1843 9.19483C11.9428 9.43426 11.9428 9.82255 12.1843 10.062C12.4258 10.3015 12.8173 10.3015 13.0587 10.062L14.7201 8.41429C14.7202 8.41423 14.7202 8.41416 14.7203 8.41413C14.8447 8.29066 14.8968 8.14793 14.9012 7.98068C14.9012 7.81535 14.8304 7.6564 14.7201 7.54707Z" fill="white"/>
</svg>
