<svg width="12" height="16" viewBox="0 0 12 16" fill="none" xmlns="http://www.w3.org/2000/svg">
<path d="M10.6968 12.2734C10.3553 12.2734 10.0784 12.548 10.0784 12.8866V14.6037H1.23662V1.35804H10.0784V3.07506C10.0784 3.41375 10.3553 3.68829 10.6968 3.68829C11.0382 3.68829 11.3151 3.41375 11.3151 3.07506V0.744815C11.3151 0.406132 11.0382 0.131592 10.6968 0.131592H0.618309C0.276817 0.131592 0 0.406132 0 0.744815V15.2169C0 15.5556 0.276817 15.8301 0.618309 15.8301H10.6968C11.0382 15.8301 11.3151 15.5556 11.3151 15.2169V12.8866C11.3151 12.548 11.0382 12.2734 10.6968 12.2734Z" fill="white"/>
</svg>
