<svg width="12" height="8" viewBox="0 0 12 8" fill="none" xmlns="http://www.w3.org/2000/svg">
<path d="M11.9237 3.76655C11.8165 3.61991 9.26224 0.175781 5.99994 0.175781C2.73765 0.175781 0.183235 3.61991 0.0761486 3.76641C-0.0253829 3.90554 -0.0253829 4.09423 0.0761486 4.23336C0.183235 4.38001 2.73765 7.82413 5.99994 7.82413C9.26224 7.82413 11.8165 4.37999 11.9237 4.23348C12.0254 4.09438 12.0254 3.90554 11.9237 3.76655ZM5.99994 7.03293C3.59691 7.03293 1.51564 4.74699 0.899533 3.99969C1.51484 3.25173 3.59176 0.966986 5.99994 0.966986C8.40285 0.966986 10.484 3.25252 11.1004 4.00023C10.485 4.74817 8.40813 7.03293 5.99994 7.03293Z" fill="#99A6AD"/>
<path d="M6.00009 1.62695C4.6913 1.62695 3.62646 2.69179 3.62646 4.00059C3.62646 5.30939 4.6913 6.37423 6.00009 6.37423C7.30889 6.37423 8.37372 5.30939 8.37372 4.00059C8.37372 2.69179 7.30889 1.62695 6.00009 1.62695ZM6.00009 5.583C5.12752 5.583 4.41769 4.87315 4.41769 4.00059C4.41769 3.12803 5.12754 2.41818 6.00009 2.41818C6.87265 2.41818 7.5825 3.12803 7.5825 4.00059C7.5825 4.87315 6.87267 5.583 6.00009 5.583Z" fill="#99A6AD"/>
</svg>
