<svg width="16" height="14" viewBox="0 0 16 14" fill="none" xmlns="http://www.w3.org/2000/svg">
<path d="M14.0286 2.69521H8.96455C8.75898 2.69521 8.5582 2.6108 8.41955 2.46733L6.83946 0.802838C6.45964 0.424245 5.93999 0.226495 5.41368 0.229527H1.97137C0.884405 0.229495 0 1.1139 0 2.20084V11.7984C0 12.8854 0.884405 13.7698 1.97137 13.7698H14.0358H14.0377C15.124 13.765 16.0048 12.8763 16 11.7924V4.66655C16 3.57958 15.1156 2.69521 14.0286 2.69521ZM14.7943 11.7948C14.7961 12.2168 14.4543 12.5623 14.0347 12.5641H1.97137C1.54937 12.5641 1.20575 12.2204 1.20575 11.7984V2.20084C1.20575 1.77884 1.54937 1.43521 1.97137 1.43459H5.42936C5.43599 1.43459 5.44261 1.43459 5.44927 1.43459C5.65061 1.43459 5.84596 1.51477 5.97736 1.64499L7.54902 3.30165C7.91795 3.68264 8.43402 3.90089 8.96455 3.90089H14.0286C14.4506 3.90089 14.7942 4.24452 14.7942 4.66652V11.7948H14.7943Z" fill="#3D71BF"/>
</svg>
