<svg width="17" height="17" viewBox="0 0 17 17" fill="none" xmlns="http://www.w3.org/2000/svg">
<path d="M9.03344 16.9999H7.96653C7.10361 16.9999 6.40153 16.3036 6.40153 15.4478V15.0898C6.03467 14.9736 5.67823 14.8268 5.33581 14.6511L5.08001 14.9048C4.46047 15.52 3.46807 15.5019 2.86653 14.9045L2.11245 14.1567C1.50985 13.5597 1.49251 12.5758 2.11265 11.9614L2.36825 11.7079C2.19104 11.3683 2.04312 11.0149 1.92588 10.6509H1.56496C0.70208 10.6509 0 9.95467 0 9.09885V8.04067C0 7.18485 0.70208 6.48858 1.565 6.48858H1.92591C2.04315 6.1247 2.19107 5.77123 2.36828 5.43162L2.11248 5.17796C1.49271 4.56394 1.50981 3.57992 2.11268 2.98267L2.86682 2.23476C3.46976 1.63596 4.46194 1.62101 5.08028 2.23496L5.33584 2.48842C5.67827 2.31271 6.0347 2.16597 6.40156 2.04969V1.69174C6.40156 0.835923 7.10361 0.139648 7.96656 0.139648H9.03347C9.89639 0.139648 10.5984 0.835923 10.5984 1.69174V2.04973C10.9653 2.16597 11.3217 2.31271 11.6642 2.48846L11.92 2.23476C12.5395 1.61956 13.5319 1.63761 14.1334 2.23499L14.8875 2.98284C15.4901 3.57983 15.5075 4.56375 14.8873 5.17812L14.6317 5.43162C14.8089 5.77123 14.9568 6.12467 15.0741 6.48858H15.435C16.2979 6.48858 17 7.18485 17 8.04067V9.09885C17 9.95467 16.2979 10.6509 15.435 10.6509H15.0741C14.9568 11.0148 14.8089 11.3683 14.6317 11.7079L14.8875 11.9616C15.5073 12.5756 15.4902 13.5596 14.8873 14.1569L14.1332 14.9048C13.5302 15.5036 12.5381 15.5185 11.9197 14.9046L11.6642 14.6511C11.3217 14.8268 10.9653 14.9736 10.5984 15.0899V15.4478C10.5984 16.3036 9.89639 16.9999 9.03344 16.9999ZM5.50232 13.6137C5.97802 13.8927 6.49002 14.1035 7.02406 14.2402C7.24399 14.2964 7.39766 14.4932 7.39766 14.7184V15.4478C7.39766 15.7589 7.65289 16.012 7.96656 16.012H9.03347C9.34714 16.012 9.60238 15.7589 9.60238 15.4478V14.7184C9.60238 14.4932 9.75604 14.2964 9.97598 14.2402C10.51 14.1035 11.022 13.8927 11.4977 13.6137C11.6934 13.4989 11.9426 13.5301 12.1034 13.6896L12.6243 14.2062C12.8489 14.4292 13.2096 14.424 13.4286 14.2064L14.1832 13.4581C14.4018 13.2416 14.4091 12.8838 14.1834 12.6603L13.6623 12.1435C13.5016 11.9841 13.4701 11.7369 13.5858 11.5428C13.8671 11.071 14.0796 10.5633 14.2174 10.0336C14.2742 9.81544 14.4726 9.66307 14.6997 9.66307H15.435C15.7487 9.66307 16.0039 9.40997 16.0039 9.09888V8.04071C16.0039 7.72962 15.7487 7.47651 15.435 7.47651H14.6997C14.4725 7.47651 14.2742 7.32411 14.2174 7.10602C14.0796 6.57634 13.8671 6.06855 13.5858 5.5968C13.4701 5.40271 13.5016 5.15553 13.6623 4.99609L14.1832 4.47944C14.4084 4.25638 14.4026 3.89875 14.1834 3.68171L13.4289 2.93337C13.2102 2.71617 12.8495 2.70981 12.6246 2.93318L12.1035 3.45002C11.9427 3.6095 11.6934 3.64071 11.4977 3.52592C11.022 3.2469 10.5101 3.03612 9.97601 2.89942C9.75607 2.84315 9.60241 2.64642 9.60241 2.42115V1.69174C9.60241 1.38065 9.34718 1.12755 9.03351 1.12755H7.96659C7.65292 1.12755 7.39769 1.38065 7.39769 1.69174V2.42108C7.39769 2.64636 7.24403 2.84308 7.02409 2.89936C6.49005 3.03605 5.97806 3.24684 5.50236 3.52585C5.30659 3.64061 5.0574 3.6094 4.89663 3.44995L4.37574 2.93331C4.15115 2.71031 3.79047 2.71548 3.57143 2.93308L2.81682 3.68145C2.59828 3.89793 2.59097 4.25565 2.81662 4.47918L3.33774 4.99602C3.49851 5.15547 3.52999 5.40264 3.41428 5.59673C3.13295 6.06849 2.92045 6.57627 2.78262 7.10595C2.72584 7.32408 2.52749 7.47645 2.30038 7.47645H1.565C1.25133 7.47648 0.996094 7.72958 0.996094 8.04067V9.09885C0.996094 9.40994 1.25133 9.66304 1.565 9.66304H2.30035C2.52749 9.66304 2.72581 9.81544 2.78259 10.0335C2.92041 10.5632 3.13295 11.071 3.41424 11.5428C3.52996 11.7368 3.49848 11.984 3.33771 12.1435L2.81679 12.6601C2.5916 12.8832 2.59748 13.2408 2.81659 13.4578L3.57113 14.2062C3.78984 14.4234 4.15056 14.4297 4.37547 14.2064L4.89656 13.6895C5.01503 13.5721 5.2615 13.4724 5.50232 13.6137Z" fill="white"/>
<path d="M8.49988 12.2382C6.4603 12.2382 4.80103 10.5926 4.80103 8.56978C4.80103 6.54702 6.4603 4.90137 8.49988 4.90137C10.5395 4.90137 12.1987 6.54702 12.1987 8.56978C12.1987 10.5926 10.5395 12.2382 8.49988 12.2382ZM8.49988 5.88927C7.00955 5.88927 5.79713 7.09175 5.79713 8.56978C5.79713 10.0478 7.00958 11.2503 8.49988 11.2503C9.99018 11.2503 11.2026 10.0478 11.2026 8.56978C11.2026 7.09175 9.99021 5.88927 8.49988 5.88927Z" fill="white"/>
</svg>
