<svg width="17" height="17" viewBox="0 0 17 17" fill="none" xmlns="http://www.w3.org/2000/svg">
<path d="M9.03344 17H7.96653C7.10361 17 6.40153 16.3037 6.40153 15.4479V15.0899C6.03467 14.9737 5.67823 14.8269 5.33581 14.6512L5.08001 14.9049C4.46047 15.5201 3.46807 15.502 2.86653 14.9047L2.11245 14.1568C1.50985 13.5598 1.49251 12.5759 2.11265 11.9615L2.36825 11.708C2.19104 11.3684 2.04312 11.015 1.92588 10.6511H1.56496C0.70208 10.6511 0 9.95479 0 9.09897V8.04079C0 7.18497 0.70208 6.4887 1.565 6.4887H1.92591C2.04315 6.12482 2.19107 5.77135 2.36828 5.43174L2.11248 5.17808C1.49271 4.56406 1.50981 3.58005 2.11268 2.98279L2.86682 2.23488C3.46976 1.63608 4.46194 1.62113 5.08028 2.23508L5.33584 2.48854C5.67827 2.31283 6.0347 2.16609 6.40156 2.04982V1.69187C6.40156 0.836045 7.10361 0.139771 7.96656 0.139771H9.03347C9.89639 0.139771 10.5984 0.836045 10.5984 1.69187V2.04985C10.9653 2.16609 11.3217 2.31283 11.6642 2.48858L11.92 2.23488C12.5395 1.61968 13.5319 1.63773 14.1334 2.23511L14.8875 2.98296C15.4901 3.57995 15.5075 4.56387 14.8873 5.17825L14.6317 5.43174C14.8089 5.77135 14.9568 6.12479 15.0741 6.4887H15.435C16.2979 6.4887 17 7.18497 17 8.04079V9.09897C17 9.95479 16.2979 10.6511 15.435 10.6511H15.0741C14.9568 11.0149 14.8089 11.3684 14.6317 11.708L14.8875 11.9617C15.5073 12.5757 15.4902 13.5598 14.8873 14.157L14.1332 14.9049C13.5302 15.5037 12.5381 15.5187 11.9197 14.9047L11.6642 14.6513C11.3217 14.827 10.9653 14.9737 10.5984 15.09V15.448C10.5984 16.3037 9.89639 17 9.03344 17ZM5.50232 13.6138C5.97802 13.8928 6.49002 14.1036 7.02406 14.2403C7.24399 14.2966 7.39766 14.4933 7.39766 14.7186V15.4479C7.39766 15.759 7.65289 16.0121 7.96656 16.0121H9.03347C9.34714 16.0121 9.60238 15.759 9.60238 15.4479V14.7186C9.60238 14.4933 9.75604 14.2966 9.97598 14.2403C10.51 14.1036 11.022 13.8928 11.4977 13.6138C11.6934 13.499 11.9426 13.5302 12.1034 13.6897L12.6243 14.2063C12.8489 14.4293 13.2096 14.4242 13.4286 14.2066L14.1832 13.4582C14.4018 13.2417 14.4091 12.884 14.1834 12.6605L13.6623 12.1436C13.5016 11.9842 13.4701 11.737 13.5858 11.5429C13.8671 11.0712 14.0796 10.5634 14.2174 10.0337C14.2742 9.81556 14.4726 9.6632 14.6997 9.6632H15.435C15.7487 9.6632 16.0039 9.4101 16.0039 9.099V8.04083C16.0039 7.72974 15.7487 7.47664 15.435 7.47664H14.6997C14.4725 7.47664 14.2742 7.32424 14.2174 7.10614C14.0796 6.57646 13.8671 6.06868 13.5858 5.59692C13.4701 5.40283 13.5016 5.15565 13.6623 4.99621L14.1832 4.47957C14.4084 4.2565 14.4026 3.89888 14.1834 3.68183L13.4289 2.9335C13.2102 2.71629 12.8495 2.70993 12.6246 2.9333L12.1035 3.45014C11.9427 3.60962 11.6934 3.64084 11.4977 3.52604C11.022 3.24702 10.5101 3.03624 9.97601 2.89955C9.75607 2.84327 9.60241 2.64654 9.60241 2.42127V1.69187C9.60241 1.38078 9.34718 1.12767 9.03351 1.12767H7.96659C7.65292 1.12767 7.39769 1.38078 7.39769 1.69187V2.4212C7.39769 2.64648 7.24403 2.8432 7.02409 2.89948C6.49005 3.03617 5.97806 3.24696 5.50236 3.52598C5.30659 3.64074 5.0574 3.60952 4.89663 3.45007L4.37574 2.93343C4.15115 2.71043 3.79047 2.7156 3.57143 2.9332L2.81682 3.68157C2.59828 3.89805 2.59097 4.25577 2.81662 4.4793L3.33774 4.99614C3.49851 5.15559 3.52999 5.40276 3.41428 5.59685C3.13295 6.06861 2.92045 6.57639 2.78262 7.10607C2.72584 7.3242 2.52749 7.47657 2.30038 7.47657H1.565C1.25133 7.4766 0.996094 7.7297 0.996094 8.04079V9.09897C0.996094 9.41006 1.25133 9.66316 1.565 9.66316H2.30035C2.52749 9.66316 2.72581 9.81556 2.78259 10.0337C2.92041 10.5633 3.13295 11.0711 3.41424 11.5429C3.52996 11.737 3.49848 11.9841 3.33771 12.1436L2.81679 12.6602C2.5916 12.8833 2.59748 13.2409 2.81659 13.458L3.57113 14.2063C3.78984 14.4235 4.15056 14.4299 4.37547 14.2065L4.89656 13.6897C5.01503 13.5722 5.2615 13.4725 5.50232 13.6138Z" fill="white"/>
</svg>
