<svg width="9" height="8" viewBox="0 0 9 8" fill="none" xmlns="http://www.w3.org/2000/svg">
<path d="M4.99249 3.50755C4.93999 3.45505 4.86749 3.42805 4.79349 3.43505L2.84899 3.61155C2.75249 3.62055 2.66899 3.68455 2.63649 3.77555C2.60349 3.86705 2.62599 3.96905 2.69449 4.03755L3.22499 4.56805L0.573491 7.21954C0.475991 7.31704 0.475991 7.47554 0.573491 7.57304L0.926991 7.92654C1.02449 8.02454 1.18249 8.02454 1.28049 7.92654L3.93199 5.27505L4.46249 5.80555C4.53099 5.87405 4.63299 5.89655 4.72449 5.86405C4.75949 5.85105 4.79049 5.83105 4.81599 5.80555C4.85649 5.76505 4.88299 5.71105 4.88799 5.65105L5.06499 3.70655C5.07199 3.63255 5.04499 3.56005 4.99249 3.50755Z" fill="white"/>
<path d="M8 0H1C0.724 0 0.5 0.224 0.5 0.5V5.5H1.5V1H7.5V7H3V8H8C8.2765 8 8.5 7.7765 8.5 7.5V0.5C8.5 0.224 8.2765 0 8 0Z" fill="white"/>
</svg>
