<svg width="22" height="18" viewBox="0 0 22 18" fill="none" xmlns="http://www.w3.org/2000/svg">
<path d="M21.9936 1.62404C21.9913 1.57867 21.9826 1.53512 21.9734 1.49021C21.9643 1.44483 21.956 1.40037 21.9404 1.35729C21.9354 1.34354 21.9358 1.32933 21.9303 1.31604C21.9189 1.289 21.8996 1.26746 21.8859 1.24179C21.8639 1.20008 21.8419 1.15975 21.8139 1.12217C21.7873 1.08642 21.7571 1.05571 21.7255 1.02454C21.6943 0.993375 21.6636 0.963125 21.6278 0.936083C21.5903 0.908125 21.5499 0.886125 21.5082 0.864125C21.4825 0.850375 21.4615 0.830667 21.434 0.819667C21.4207 0.814167 21.406 0.814167 21.3927 0.809125C21.3501 0.793542 21.3065 0.785292 21.2616 0.776125C21.2158 0.766958 21.1713 0.757792 21.125 0.7555C21.1108 0.7555 21.0975 0.75 21.0833 0.75H0.916667C0.902 0.75 0.88825 0.755958 0.873583 0.756417C0.828208 0.758708 0.784667 0.767417 0.73975 0.776583C0.694375 0.78575 0.649917 0.794 0.606833 0.809583C0.593083 0.814625 0.578875 0.814167 0.565583 0.819667C0.538542 0.831125 0.517 0.850375 0.491333 0.864125C0.449625 0.886125 0.409292 0.908125 0.371708 0.936083C0.335958 0.962667 0.30525 0.992917 0.274083 1.02454C0.242917 1.05571 0.212667 1.08642 0.185625 1.12217C0.157667 1.15975 0.135667 1.20008 0.113667 1.24179C0.0999167 1.26746 0.0802083 1.28854 0.0692083 1.31604C0.0637083 1.32933 0.0637083 1.34354 0.059125 1.35729C0.0435417 1.40037 0.0352917 1.44483 0.026125 1.49021C0.0174167 1.53512 0.00825 1.57867 0.00595833 1.62404C0.0055 1.63871 0 1.652 0 1.66667V16.3333C0 16.3934 0.00641667 16.4534 0.017875 16.513C0.023375 16.54 0.0334583 16.5653 0.04125 16.5914C0.0504167 16.6225 0.05775 16.6537 0.070125 16.684C0.0829583 16.7147 0.100375 16.7426 0.116417 16.772C0.12925 16.7953 0.139333 16.8196 0.154458 16.8421C0.221375 16.9425 0.308 17.0291 0.408375 17.096C0.430833 17.1111 0.455583 17.1217 0.479417 17.1345C0.508292 17.1501 0.535792 17.1675 0.5665 17.1803C0.59675 17.1927 0.628375 17.2 0.659542 17.2092C0.685667 17.217 0.710875 17.2271 0.737917 17.2326C0.796583 17.2436 0.856625 17.25 0.916667 17.25H21.0833C21.1434 17.25 21.2034 17.2436 21.263 17.2321C21.29 17.2266 21.3153 17.2165 21.3414 17.2087C21.3725 17.1996 21.4042 17.1923 21.4344 17.1799C21.4647 17.167 21.4926 17.1501 21.5215 17.134C21.5453 17.1212 21.5696 17.1107 21.5925 17.0955C21.6929 17.0282 21.7795 16.942 21.8465 16.8416C21.8616 16.8192 21.8717 16.7949 21.8845 16.7715C21.9005 16.7426 21.918 16.7147 21.9308 16.6835C21.9432 16.6533 21.9505 16.6221 21.9597 16.5909C21.9675 16.5648 21.9775 16.5396 21.983 16.5125C21.9936 16.4534 22 16.3934 22 16.3333V1.66667C22 1.652 21.9945 1.63871 21.9936 1.62404ZM18.87 2.58333L11.9203 9.5335C11.413 10.0404 10.5875 10.0404 10.0797 9.5335L3.12996 2.58333H18.87ZM1.83333 3.87996L6.95383 9L1.83333 14.1205V3.87996ZM3.1295 15.4167L8.25 10.2962L8.7835 10.8297C8.86004 10.9062 8.93933 10.9777 9.02138 11.0446C10.169 11.9805 11.831 11.9805 12.9786 11.0446C13.0607 10.9777 13.14 10.9062 13.2165 10.8297L13.75 10.2962L18.8705 15.4167H3.1295ZM20.1667 14.1205L15.0462 9L20.1667 3.87996V14.1205Z" fill="#3D71BF"/>
</svg>
