<svg width="15" height="15" viewBox="0 0 15 15" fill="none" xmlns="http://www.w3.org/2000/svg">
<path d="M2.34326 10.1582L10.6265 1.87494L13.1225 4.37095L4.83928 12.6542L2.34326 10.1582Z" fill="#3D71BF"/>
<path d="M14.8711 0.128712C14.6995 -0.042904 14.4213 -0.042904 14.2497 0.128712L13.5936 0.784737L13.2776 0.468751C12.9342 0.125284 12.3782 0.125196 12.0347 0.468751L11.2499 1.2535L13.7463 3.7499L13.1249 4.37136L13.5588 4.80532C13.7383 4.98479 13.7292 5.27769 13.539 5.44559L10.2561 8.34208C9.95202 8.61034 10.1448 9.11104 10.547 9.11104C10.6502 9.11104 10.754 9.07483 10.8375 9.00112L14.1205 6.10454C14.6899 5.60188 14.7174 4.72101 14.1803 4.18384L13.7463 3.74987L14.5311 2.96509C14.8737 2.62245 14.8737 2.06486 14.5311 1.72221L14.2151 1.40622L14.8712 0.750168C15.0428 0.578552 15.0428 0.300328 14.8711 0.128712Z" fill="#3D71BF"/>
<path d="M1.77277 10.8301L0.343623 12.8717C0.221312 13.0464 0.242112 13.2837 0.392899 13.4344L0.668105 13.7096L0.129205 14.2485C-0.148433 14.5261 0.0519517 14.9986 0.439919 14.9986C0.552386 14.9986 0.664854 14.9557 0.750632 14.8699L1.2895 14.331L1.56471 14.6062C1.71596 14.7575 1.95332 14.7774 2.12743 14.6555L4.16907 13.2264L1.77277 10.8301Z" fill="#3D71BF"/>
</svg>
