<svg width="12" height="12" viewBox="0 0 12 12" fill="none" xmlns="http://www.w3.org/2000/svg">
<path d="M1.87476 8.12695L8.50137 1.50034L10.4982 3.49715L3.87157 10.1238L1.87476 8.12695Z" fill="white"/>
<path d="M11.897 0.10297C11.7598 -0.0343232 11.5372 -0.0343232 11.3999 0.10297L10.875 0.62779L10.6222 0.375001C10.3475 0.100228 9.90269 0.100157 9.62789 0.375001L9.00009 1.0028L10.9972 2.99992L10.5 3.49709L10.8472 3.84426C10.9908 3.98783 10.9835 4.22215 10.8313 4.35647L8.20499 6.67367C7.96176 6.88828 8.11598 7.28884 8.43772 7.28884C8.52033 7.28884 8.60332 7.25987 8.67016 7.2009L11.2965 4.88363C11.7521 4.4815 11.7741 3.77681 11.3444 3.34707L10.9972 2.9999L11.625 2.37207C11.8991 2.09796 11.8991 1.65188 11.625 1.37777L11.3722 1.12498L11.8971 0.600135C12.0344 0.462842 12.0344 0.240262 11.897 0.10297Z" fill="white"/>
<path d="M1.41822 8.66431L0.274898 10.2976C0.17705 10.4374 0.19369 10.6272 0.314319 10.7478L0.534484 10.968L0.103364 11.399C-0.118746 11.6211 0.0415614 11.9992 0.351935 11.9992C0.441909 11.9992 0.531883 11.9648 0.600506 11.8962L1.0316 11.4651L1.25177 11.6852C1.37277 11.8063 1.56266 11.8222 1.70194 11.7247L3.33525 10.5813L1.41822 8.66431Z" fill="white"/>
</svg>