<svg width="23" height="23" viewBox="0 0 23 23" fill="none" xmlns="http://www.w3.org/2000/svg">
<path d="M9.52411 13.4759C7.3288 11.2806 6.83311 9.08528 6.72128 8.20573C6.69003 7.96253 6.77372 7.71864 6.94771 7.54586L8.72426 5.77011C8.9856 5.50893 9.03197 5.10191 8.83609 4.78864L6.00749 0.396433C5.79078 0.049549 5.34582 -0.075645 4.98002 0.107347L0.439108 2.24595C0.143304 2.39161 -0.0306839 2.70589 0.00290145 3.0339C0.240832 5.29424 1.22626 10.8507 6.68678 16.3116C12.1473 21.7726 17.703 22.7576 19.9645 22.9955C20.2925 23.0291 20.6068 22.8551 20.7525 22.5593L22.8911 18.0184C23.0734 17.6534 22.949 17.2096 22.6036 16.9925L18.2114 14.1647C17.8983 13.9686 17.4913 14.0147 17.2299 14.2757L15.4541 16.0523C15.2814 16.2263 15.0375 16.31 14.7943 16.2787C13.9147 16.1669 11.7194 15.6712 9.52411 13.4759Z" fill="#3D71BF"/>
</svg>
