<svg width="12" height="10" viewBox="0 0 12 10" fill="none" xmlns="http://www.w3.org/2000/svg">
<path d="M11.9965 0.97675C11.9952 0.952 11.9905 0.92825 11.9855 0.90375C11.9805 0.879 11.976 0.85475 11.9675 0.83125C11.9647 0.82375 11.965 0.816 11.962 0.80875C11.9557 0.794 11.9452 0.78225 11.9377 0.76825C11.9257 0.7455 11.9138 0.7235 11.8985 0.703C11.884 0.6835 11.8675 0.66675 11.8503 0.64975C11.8333 0.63275 11.8165 0.61625 11.797 0.6015C11.7765 0.58625 11.7545 0.57425 11.7317 0.56225C11.7177 0.55475 11.7063 0.544 11.6912 0.538C11.684 0.535 11.676 0.535 11.6687 0.53225C11.6455 0.52375 11.6217 0.51925 11.5972 0.51425C11.5723 0.50925 11.548 0.50425 11.5227 0.503C11.515 0.503 11.5077 0.5 11.5 0.5H0.5C0.492 0.5 0.4845 0.50325 0.4765 0.5035C0.45175 0.50475 0.428 0.5095 0.4035 0.5145C0.37875 0.5195 0.3545 0.524 0.331 0.5325C0.3235 0.53525 0.31575 0.535 0.3085 0.538C0.29375 0.54425 0.282 0.55475 0.268 0.56225C0.24525 0.57425 0.22325 0.58625 0.20275 0.6015C0.18325 0.616 0.1665 0.6325 0.1495 0.64975C0.1325 0.66675 0.116 0.6835 0.10125 0.703C0.086 0.7235 0.074 0.7455 0.062 0.76825C0.0545 0.78225 0.04375 0.79375 0.03775 0.80875C0.03475 0.816 0.03475 0.82375 0.03225 0.83125C0.02375 0.85475 0.01925 0.879 0.01425 0.90375C0.0095 0.92825 0.0045 0.952 0.00325 0.97675C0.003 0.98475 0 0.992 0 1V9C0 9.03275 0.0035 9.0655 0.00975 9.098C0.01275 9.11275 0.01825 9.1265 0.0225 9.14075C0.0275 9.15775 0.0315 9.17475 0.03825 9.19125C0.04525 9.208 0.05475 9.22325 0.0635 9.23925C0.0705 9.252 0.076 9.26525 0.08425 9.2775C0.12075 9.33225 0.168 9.3795 0.22275 9.416C0.235 9.42425 0.2485 9.43 0.2615 9.437C0.27725 9.4455 0.29225 9.455 0.309 9.462C0.3255 9.46875 0.34275 9.47275 0.35975 9.47775C0.374 9.482 0.38775 9.4875 0.4025 9.4905C0.4345 9.4965 0.46725 9.5 0.5 9.5H11.5C11.5328 9.5 11.5655 9.4965 11.598 9.49025C11.6127 9.48725 11.6265 9.48175 11.6407 9.4775C11.6578 9.4725 11.675 9.4685 11.6915 9.46175C11.708 9.45475 11.7233 9.4455 11.739 9.43675C11.752 9.42975 11.7653 9.424 11.7778 9.41575C11.8325 9.379 11.8798 9.332 11.9163 9.27725C11.9245 9.265 11.93 9.25175 11.937 9.239C11.9458 9.22325 11.9552 9.208 11.9622 9.191C11.969 9.1745 11.973 9.1575 11.978 9.1405C11.9822 9.12625 11.9878 9.1125 11.9908 9.09775C11.9965 9.0655 12 9.03275 12 9V1C12 0.992 11.997 0.98475 11.9965 0.97675ZM10.2928 1.5L6.502 5.291C6.22525 5.5675 5.775 5.5675 5.498 5.291L1.70725 1.5H10.2928ZM1 2.20725L3.793 5L1 7.793V2.20725ZM1.707 8.5L4.5 5.707L4.791 5.998C4.83275 6.03975 4.876 6.07875 4.92075 6.11525C5.54675 6.62575 6.45325 6.62575 7.07925 6.11525C7.124 6.07875 7.16725 6.03975 7.209 5.998L7.5 5.707L10.293 8.5H1.707ZM11 7.793L8.207 5L11 2.20725V7.793Z" fill="white"/>
</svg>
